<?xml version="1.0" standalone="no"?><!DOCTYPE svg PUBLIC "-//W3C//DTD SVG 1.1//EN" "http://www.w3.org/Graphics/SVG/1.1/DTD/svg11.dtd"><svg class="icon" width="128px" height="122.96px" viewBox="0 0 1066 1024" version="1.1" xmlns="http://www.w3.org/2000/svg"><path d="M861.684651 167.882894v460.821414c0 20.128816-16.274362 35.974906-35.974906 35.974906H161.030531c-20.128816 0-35.974906-16.274362-35.974906-35.974906V167.882894c0-22.698453 18.415726-41.114178 41.114178-41.114178h654.40067c22.698453 0 41.114178 18.415726 41.114178 41.114178z" fill="#A6A2F0" /><path d="M174.735257 176.876621h636.413216v438.122961H174.735257z" fill="#FFFFFF" /><path d="M405.145964 665.107486h176.448348v55.247177H405.145964z" fill="#C9E6F8" /><path d="M713.930573 756.329569H272.38143c0-9.850272 3.854454-18.843998 10.706818-25.696361 6.42409-6.42409 15.417817-10.706817 25.696361-10.706817h369.599331c19.700544 0.428273 35.546633 16.274362 35.546633 36.403178z" fill="#A6A2F0" /><path d="M214.99289 325.487244h329.341698v289.512338H214.99289z" fill="#FFFFFF" /><path d="M577.311585 244.115433h195.720619v24.839816h-195.720619z" fill="#FEC355" /><path d="M577.311585 283.088248h195.720619v24.839816h-195.720619z" fill="#62A8E1" /><path d="M544.188975 307.791016h-329.341698v-24.839816h329.341698z" fill="#FF5252" /><path d="M511.211978 591.830029h-263.387704v-24.839816h263.387704zM544.188975 269.062317h-329.341698v-24.839816h329.341698zM577.311585 325.487244h195.720619v24.839816h-195.720619zM577.311585 479.665412h61.242995v24.839816h-61.242995zM577.311585 525.918862h61.242995v24.839816h-61.242995zM577.311585 572.172313h195.720619v24.839816h-195.720619z" fill="#62A8E1" /><path d="M739.198662 464.675868l-5.567545 6.42409 23.98327 21.841907h-79.230447l23.98327-21.841907-5.567545-6.42409-34.261815 30.835633 15.84609 64.669177h79.230447l15.84609-64.669177-34.261815-30.835633z m-25.696362 47.966541h-17.55918l-1.713091-11.13509h18.843999v11.13509z m8.565454-11.13509h18.843998l-1.71309 11.13509h-17.559181v-11.13509z m-34.261815 11.13509h-12.419908l-2.569636-11.13509h13.704726l1.284818 11.13509z m-10.278545 8.137181h11.563363l1.713091 11.991635h-10.278545l-2.997909-11.991635z m19.700544 0h16.274362v11.991635h-14.561271l-1.713091-11.991635z m24.839816 0h16.274362l-1.71309 11.991635h-14.561272v-11.991635z m24.839816 0h11.563363l-2.997909 11.991635H745.194479l1.713091-11.991635z m1.284818-8.137181l1.713091-11.13509h13.704726l-2.569636 11.13509h-12.848181z m-63.384358 39.401087l-2.569636-10.706817h9.421999l1.284818 10.706817h-8.137181z m14.989544-10.706817h13.704726v10.706817h-11.991635l-1.713091-10.706817z m22.27018 10.706817v-10.706817h13.704726l-1.284818 10.706817h-12.419908z m20.557089 0l1.284818-10.706817h9.421999l-2.569636 10.706817h-8.137181z" fill="#CACACA" /><path d="M321.204517 527.631953l-47.109996-50.96445-19.700544 26.98118-15.417816-11.13509 33.405269-45.825178 44.968633 48.394814L387.586784 368.314513l53.105813 86.08281L503.648683 342.618151l16.702634 9.422-78.802174 140.045169-53.105814-86.082811z" fill="#FF5252" /><path d="M577.311585 367.457967h85.226265v74.947721h-85.226265z" fill="#FEC355" /><path d="M687.805939 367.457967h85.226265v74.947721h-85.226265z" fill="#C9E6F8" /><path d="M174.735257 176.876621h636.413216v46.681723H174.735257z" fill="#8D8DE2" /><path d="M216.277708 200.003346c0-6.42409-5.139272-11.563363-11.563363-11.563363s-11.563363 5.139272-11.563362 11.563363c0 6.42409 5.139272 11.563363 11.563362 11.563362s11.563363-5.139272 11.563363-11.563362z" fill="#FF5252" /><path d="M251.824341 200.003346c0-6.42409-5.139272-11.563363-11.563362-11.563363-6.42409 0-11.563363 5.139272-11.563363 11.563363 0 6.42409 5.139272 11.563363 11.563363 11.563362 6.42409 0 11.563363-5.139272 11.563362-11.563362z" fill="#FEC355" /><path d="M942.199916 571.74404V873.676286c0 15.417817-12.419908 27.837725-27.837724 27.837725h-421.420327c-15.417817 0-27.837725-12.419908-27.837724-27.837725v-301.932246c0-15.417817 12.419908-27.837725 27.837724-27.837725h421.420327c15.417817 0 27.837725 12.419908 27.837724 27.837725z" fill="#6F68E6" /><path d="M895.278361 872.682693h-367.886241v-299.362609h367.886241z" fill="#E4E4E4" /><path d="M508.787955 722.924299c0 7.280636-5.139272 13.276453-11.991635 14.989545-0.856545 0-2.141363 0.428273-2.997909 0.428272-8.137181 0-14.989544-6.852363-14.989544-14.989544 0-6.42409 3.854454-11.563363 9.421999-14.132999 1.713091-0.856545 3.854454-1.284818 5.995817-1.284818 8.137181 0 14.561271 6.42409 14.561272 14.989544z" fill="#FFFFFF" /><path d="M508.787955 722.924299c0 7.280636-5.139272 13.276453-11.991635 14.989545l-8.565454-28.694271c1.713091-0.856545 3.854454-1.284818 5.995817-1.284818 8.137181 0 14.561271 6.42409 14.561272 14.989544z" fill="#FFFFFF" /><path d="M545.191133 668.533668h329.341698v203.8578h-329.341698z" fill="#FFFFFF" /><path d="M874.318695 650.867419h-329.341698v-24.839815h329.341698z" fill="#FF5252" /><path d="M874.318695 612.13872h-329.341698v-24.839816h329.341698zM846.48097 858.729569h-273.666248v-24.839816h273.666248z" fill="#62A8E1" /><path d="M668.961941 819.285655l-32.548725-35.546634-14.132999 18.843999-10.706817-7.708909 23.554998-31.692179 31.263906 33.40527 48.823087-88.224174 37.259724 59.958177 43.683814-77.94563 11.563363 6.42409-54.818904 97.646174-37.259724-59.958177z" fill="#FF5252" /></svg>